# xmcd
#
# Track frame offsets:
#   150
#   20287
#   38197
#   53502
#   67075
#   84572
#   95252
#   108057
#   126550
#   150745
#   168130
#   185815
#   203405
#   223845
#   259412
#   287927
#
# Disc length: 4048 seconds
#
# Revision: 6
# Processed by: cddbd v1.5.2PL0 Copyright (c) Steve Scherf et al.
# Submitted via: Media_Universe 3.0
#
DISCID=e30fce10
DTITLE=Diana Ross - Diana Ross - All the Great Hits
DYEAR=2000
DGENRE=R&B
TTITLE0=Diana Ross - Endless Love (with Lionel Richie)
TTITLE1=Diana Ross - It's My Turn
TTITLE2=Diana Ross - Theme from Mahogany (Do You Know Where You're Going To)
TTITLE3=Diana Ross - Reach Out and Touch (Somebody's Hand)
TTITLE4=Diana Ross - Touch Me in the Morning
TTITLE5=Diana Ross - Good Morning Heartache
TTITLE6=Diana Ross - Last Time I Saw Him
TTITLE7=Diana Ross - Upside Down
TTITLE8=Diana Ross - I'm Coming Out
TTITLE9=Diana Ross - Tenderness
TTITLE10=Diana Ross - My Old Piano
TTITLE11=Diana Ross - The Boss
TTITLE12=Diana Ross - It's My House
TTITLE13=Diana Ross - Love Hangover
TTITLE14=Diana Ross - Ain't No Mountain High Enough
TTITLE15=Diana Ross - Remember Me
EXTD=
EXTT0=
EXTT1=
EXTT2=
EXTT3=
EXTT4=
EXTT5=
EXTT6=
EXTT7=
EXTT8=
EXTT9=
EXTT10=
EXTT11=
EXTT12=
EXTT13=
EXTT14=
EXTT15=
PLAYORDER=
